<svg xmlns="http://www.w3.org/2000/svg" viewBox="0 0 512 512">
  <defs>
    <linearGradient id="g" x1="0" y1="0" x2="1" y2="1">
      <stop offset="0" stop-color="#2563eb"/>
      <stop offset="1" stop-color="#7c3aed"/>
    </linearGradient>
  </defs>
  <rect width="512" height="512" rx="120" fill="url(#g)"/>
  <path d="M170 344V168h70c28 0 50 6 66 19 16 12 24 30 24 54 0 16-4 30-13 41-9 11-22 19-40 23l66 85h-68l-56-76h-25v76h-54zm54-120h28c14 0 25-3 32-9 7-6 11-15 11-27 0-12-4-21-11-27-7-6-18-9-32-9h-28v72z" fill="#ffffff" opacity="0.95"/>
</svg>

